<svg xmlns="http://www.w3.org/2000/svg" xmlns:xlink="http://www.w3.org/1999/xlink" version="1.1" width="1000" height="1000" viewBox="0 0 1000 1000" xml:space="preserve">
<desc>Created with Fabric.js 3.5.0</desc>
<defs>
</defs>
<rect x="0" y="0" width="100%" height="100%" fill="rgba(255,255,255,0)"/>
<g transform="matrix(1.0967 0 0 1.0967 500.0075 500.0075)" id="154447">
<g style="" vector-effect="non-scaling-stroke">
		<g transform="matrix(1 0 0 1 -450 -450)">
<rect style="stroke: none; stroke-width: 1; stroke-dasharray: none; stroke-linecap: butt; stroke-dashoffset: 0; stroke-linejoin: miter; stroke-miterlimit: 4; is-custom-font: none; font-file-url: none; fill: rgb(255,255,255); fill-opacity: 0; fill-rule: nonzero; opacity: 1;" x="-50" y="-50" rx="0" ry="0" width="100" height="100"/>
</g>
		<g transform="matrix(7.1024 0 0 7.1024 219.9228 -104.9267)" id="_x35_">
<path style="stroke: none; stroke-width: 1; stroke-dasharray: none; stroke-linecap: butt; stroke-dashoffset: 0; stroke-linejoin: miter; stroke-miterlimit: 4; is-custom-font: none; font-file-url: none; fill: rgb(215,190,105); fill-rule: nonzero; opacity: 1;" vector-effect="non-scaling-stroke" transform=" translate(-94.9635, -49.2255)" d="m 112.33 23.72 c -2.324 1.871 -4.846 3.515 -7.512 4.876 c 1.984 6.009 3.203 13.067 3.402 20.636 h 15.732 c -0.51 -9.779 -4.678 -18.567 -11.168 -25.059 c -0.141 -0.142 -0.311 -0.312 -0.454 -0.453 z m 11.623 29.509 h -15.732 c -0.17 7.285 -1.332 14.088 -3.203 19.955 c -0.057 0.228 -0.143 0.454 -0.227 0.681 c 2.693 1.36 5.215 3.005 7.539 4.876 c 2.381 -2.297 4.479 -4.933 6.18 -7.768 c 3.176 -5.244 5.103 -11.282 5.443 -17.744 z m -14.683 28.175 c -1.842 -1.445 -3.799 -2.692 -5.867 -3.798 c -1.984 4.705 -4.508 8.589 -7.371 11.31 c -0.793 0.766 -2.041 0.737 -2.807 -0.057 s -0.736 -2.069 0.057 -2.834 c 2.523 -2.382 4.707 -5.812 6.492 -10.063 c -0.17 -0.057 -0.34 -0.113 -0.51 -0.198 c -3.602 -1.36 -7.484 -2.183 -11.537 -2.381 v 0.538 c 0 1.105 -0.879 2.013 -1.984 2.013 s -2.014 -0.907 -2.014 -2.013 v -2.607 v -18.085 h -9.383 c -1.105 0 -1.984 -0.907 -1.984 -2.013 s 0.879 -1.984 1.984 -1.984 h 9.383 v -16.129 c -3.146 -0.17 -6.236 -0.652 -9.184 -1.475 c -1.445 -0.396 -2.834 -0.85 -4.195 -1.389 c -1.984 6.038 -3.117 13.238 -3.117 20.977 c 0 1.105 -0.908 2.013 -2.014 2.013 c -1.077 0 -1.984 -0.907 -1.984 -2.013 c 0 -8.334 1.275 -16.101 3.429 -22.62 c -0.85 -0.454 -1.672 -0.907 -2.494 -1.39 c -0.963 -0.566 -1.275 -1.785 -0.708 -2.721 c 0.567 -0.964 1.787 -1.276 2.722 -0.709 c 0.623 0.368 1.246 0.737 1.898 1.049 c 0.426 -1.021 0.879 -2.013 1.389 -2.977 c 1.389 -2.777 3.033 -5.188 4.818 -7.144 c -3.316 1.049 -6.434 2.523 -9.297 4.366 c -0.936 0.595 -2.154 0.312 -2.75 -0.596 c -0.595 -0.936 -0.34 -2.183 0.595 -2.778 c 3.346 -2.154 7.029 -3.854 10.941 -5.017 c 3.799 -1.105 7.824 -1.701 11.963 -1.701 c 11.678 0 22.223 4.705 29.877 12.359 c 7.652 7.653 12.387 18.227 12.387 29.877 c 0 7.993 -2.211 15.448 -6.066 21.798 c -3.969 6.576 -9.666 11.991 -16.496 15.591 c -0.992 0.538 -2.184 0.142 -2.693 -0.822 s -0.143 -2.183 0.822 -2.692 c 1.729 -0.906 6.067 -3.826 5.698 -3.685 z m -12.077 -66.699 c 1.787 1.956 3.402 4.366 4.818 7.144 c 0.482 0.964 0.936 1.956 1.391 2.977 c 2.068 -1.077 4.025 -2.353 5.867 -3.771 c -3.572 -2.778 -7.654 -4.96 -12.076 -6.35 z m 3.942 57.515 l 0.084 -0.227 c 1.758 -5.471 2.834 -11.877 3.006 -18.765 h -16.498 v 16.129 c 4.535 0.227 8.9 1.162 12.953 2.692 c 0.17 0.057 0.312 0.114 0.455 0.171 z m 3.09 -22.989 c -0.172 -7.002 -1.277 -13.465 -3.09 -18.992 c -0.143 0.057 -0.313 0.113 -0.455 0.17 c -4.053 1.531 -8.418 2.467 -12.953 2.693 v 16.129 z m -16.498 -36.028 v 15.874 c 4.053 -0.198 7.936 -1.049 11.537 -2.409 c 0.17 -0.057 0.34 -0.113 0.48 -0.17 c -0.396 -0.992 -0.822 -1.928 -1.275 -2.835 c -2.92 -5.698 -6.66 -9.496 -10.742 -10.46 z m -3.998 15.874 v -15.874 c -4.082 0.964 -7.822 4.762 -10.715 10.46 c -0.453 0.907 -0.879 1.843 -1.303 2.835 c 1.275 0.481 2.551 0.935 3.883 1.275 c 2.607 0.737 5.328 1.163 8.135 1.304 z" stroke-linecap="round"/>
</g>
		<g transform="matrix(7.1024 0 0 7.1024 -175.0518 109.7675)" id="_x34_">
<path style="stroke: none; stroke-width: 1; stroke-dasharray: none; stroke-linecap: butt; stroke-dashoffset: 0; stroke-linejoin: miter; stroke-miterlimit: 4; is-custom-font: none; font-file-url: none; fill: rgb(215,190,105); fill-rule: nonzero; opacity: 1;" vector-effect="non-scaling-stroke" transform=" translate(-39.352, -79.4539)" d="m 24.684 57.452 l 4.025 12.67 l 7.71 -5.612 l -8.646 -9.723 z m 4.818 -6.747 l 9.864 11.112 l 9.836 -11.112 l 0.028 -0.028 c 0.708 -0.85 1.984 -0.936 2.806 -0.198 l 5.358 4.621 l 12.841 5.612 c 2.664 1.162 4.762 3.005 6.207 5.272 c 1.475 2.324 2.268 5.045 2.268 7.937 v 7.285 c 0 1.105 -0.906 2.013 -2.012 2.013 c -1.078 0 -1.984 -0.907 -1.984 -2.013 v -7.285 c 0 -2.154 -0.566 -4.139 -1.615 -5.782 c -1.049 -1.616 -2.551 -2.92 -4.451 -3.771 l -11.111 -4.847 l -4.592 14.456 c -0.397 1.304 -1.984 1.786 -3.062 0.992 l -8.532 -6.208 v 13.946 c 0 1.105 -0.878 2.013 -1.984 2.013 c -1.105 0 -2.012 -0.907 -2.012 -2.013 v -13.945 l -8.504 6.208 s -0.539 0.283 -0.595 0.283 c -1.049 0.341 -2.155 -0.227 -2.495 -1.275 l -4.592 -14.456 l -11.112 4.847 c -1.899 0.851 -3.401 2.154 -4.422 3.771 c -1.077 1.644 -1.644 3.628 -1.644 5.782 v 32.995 c 0 1.105 -0.879 2.013 -1.984 2.013 s -2.013 -0.907 -2.013 -2.013 v -32.996 c 0 -2.892 0.794 -5.612 2.268 -7.937 c 1.446 -2.268 3.572 -4.11 6.208 -5.272 l 12.84 -5.612 l 5.357 -4.621 c 0.822 -0.737 2.098 -0.651 2.807 0.198 z m -14.06 38.608 c 0 -1.105 0.907 -1.984 1.984 -1.984 c 1.105 0 2.013 0.879 2.013 1.984 v 17.603 c 0 1.105 -0.907 2.013 -2.013 2.013 c -1.077 0 -1.984 -0.907 -1.984 -2.013 z m 35.49 -34.526 l -8.646 9.723 l 7.71 5.612 l 4.025 -12.67 z" stroke-linecap="round"/>
</g>
		<g transform="matrix(7.1024 0 0 7.1024 -45.8947 291.4302)" id="_x33_">
<path style="stroke: none; stroke-width: 1; stroke-dasharray: none; stroke-linecap: butt; stroke-dashoffset: 0; stroke-linejoin: miter; stroke-miterlimit: 4; is-custom-font: none; font-file-url: none; fill: rgb(215,190,105); fill-rule: nonzero; opacity: 1;" vector-effect="non-scaling-stroke" transform=" translate(-57.537, -105.0315)" d="m 83.332 86.054 h -44.333 c -1.701 0 -3.345 1.474 -3.628 3.117 l -5.613 31.919 c -0.283 1.615 0.681 2.919 2.381 2.919 h 43.341 c 1.984 0 3.883 -1.7 4.223 -3.628 l 5.586 -31.89 c 0.027 -0.142 0.057 -0.312 0.057 -0.482 c 0 -1.191 -0.852 -1.955 -2.014 -1.955 z m -23.442 16.865 c 1.105 0 2.013 0.907 2.013 2.013 s -0.907 1.984 -2.013 1.984 s -1.984 -0.879 -1.984 -1.984 s 0.878 -2.013 1.984 -2.013 z m -20.891 -20.862 h 44.333 c 0.369 0 0.736 0.028 1.105 0.113 c 2.92 0.51 4.904 2.92 4.904 5.839 c 0 0.397 -0.057 0.766 -0.113 1.162 l -5.584 31.919 c -0.682 3.798 -4.281 6.916 -8.164 6.916 h -43.341 c -3.628 0 -6.406 -2.749 -6.406 -6.378 c 0 -0.396 0.028 -0.794 0.085 -1.247 l 5.612 -31.89 c 0.624 -3.543 3.968 -6.434 7.569 -6.434 z" stroke-linecap="round"/>
</g>
		<g transform="matrix(7.1024 0 0 7.1024 -320.5985 404.9763)" id="_x32_">
<path style="stroke: none; stroke-width: 1; stroke-dasharray: none; stroke-linecap: butt; stroke-dashoffset: 0; stroke-linejoin: miter; stroke-miterlimit: 4; is-custom-font: none; font-file-url: none; fill: rgb(215,190,105); fill-rule: nonzero; opacity: 1;" vector-effect="non-scaling-stroke" transform=" translate(-18.8594, -121.0185)" d="m 28.624 114.031 c 1.105 0 2.013 0.879 2.013 1.984 c 0 0.142 -0.028 0.283 -0.057 0.425 l -0.822 4.649 c -0.028 0.17 -0.028 0.368 -0.028 0.538 c 0 0.624 0.17 1.162 0.51 1.56 c 0.312 0.396 0.794 0.651 1.389 0.765 c 0.142 0.028 0.312 0.028 0.482 0.057 l 0.028 3.997 h -18.738 c -1.304 0 -2.636 -0.368 -3.713 -1.077 s -1.899 -1.729 -2.239 -3.09 l -1.814 -7.342 c -0.255 -1.077 0.397 -2.154 1.474 -2.409 c 0.142 -0.057 0.312 -0.057 0.481 -0.057 z m -2.381 3.997 h -16.13 l 1.219 4.875 c 0.057 0.284 0.255 0.511 0.539 0.681 c 0.425 0.283 0.963 0.425 1.53 0.425 h 12.756 c -0.284 -0.736 -0.425 -1.53 -0.425 -2.381 c 0 -0.396 0.028 -0.794 0.085 -1.247 z" stroke-linecap="round"/>
</g>
		<g transform="matrix(7.1024 0 0 7.1024 -175.0483 -262.8655)" id="_x31_">
<path style="stroke: none; stroke-width: 1; stroke-dasharray: none; stroke-linecap: butt; stroke-dashoffset: 0; stroke-linejoin: miter; stroke-miterlimit: 4; is-custom-font: none; font-file-url: none; fill: rgb(215,190,105); fill-rule: nonzero; opacity: 1;" vector-effect="non-scaling-stroke" transform=" translate(-39.3525, -26.9881)" d="m 30.636 47.077 l -0.68 5.159 c -0.17 1.105 -1.162 1.871 -2.24 1.729 c -1.105 -0.17 -1.871 -1.162 -1.729 -2.268 l 1.049 -7.653 l -0.51 -0.453 c -1.899 -1.673 -3.345 -3.686 -4.309 -5.953 c -0.992 -2.268 -1.474 -4.762 -1.474 -7.427 v -12.104 c 0 -5.414 1.871 -9.922 5.159 -13.125 c 3.26 -3.175 7.909 -4.988 13.464 -4.988 c 5.528 0 10.177 1.813 13.437 4.988 c 3.288 3.203 5.159 7.711 5.159 13.125 v 12.104 c 0 2.551 -0.454 5.074 -1.474 7.427 c -0.964 2.268 -2.41 4.28 -4.309 5.953 l -0.51 0.453 l 1.049 7.653 c 0.142 1.105 -0.624 2.098 -1.701 2.268 c -1.105 0.143 -2.097 -0.623 -2.239 -1.729 l -0.708 -5.159 c -0.907 0.624 -1.814 1.105 -2.778 1.474 c -3.317 1.305 -8.561 1.305 -11.877 0 c -0.965 -0.368 -1.872 -0.85 -2.779 -1.474 z m -5.839 -30.274 c 2.069 0.681 6.52 1.305 8.816 -4.337 c 0.425 -1.021 1.587 -1.502 2.608 -1.077 c 0.567 0.227 0.878 0.624 1.105 1.162 c 0.028 0.028 3.657 10.432 16.639 7.172 v -1.615 c 0 -4.28 -1.417 -7.824 -3.94 -10.262 c -2.523 -2.466 -6.208 -3.856 -10.658 -3.856 c -4.479 0 -8.164 1.39 -10.687 3.855 c -2.239 2.183 -3.628 5.245 -3.883 8.958 z m 29.168 7.03 c -10.403 2.268 -15.959 -2.807 -18.539 -6.491 c -3.26 4.394 -7.767 4.28 -10.687 3.571 v 9.298 c 0 2.126 0.397 4.11 1.134 5.84 c 0.737 1.729 1.842 3.288 3.316 4.563 l 2.41 2.154 c 1.049 0.936 2.126 1.615 3.288 2.069 c 2.324 0.936 6.605 0.936 8.929 0 c 1.162 -0.454 2.239 -1.134 3.316 -2.069 l 2.41 -2.154 c 1.445 -1.275 2.466 -2.665 3.203 -4.394 c 0.85 -1.843 1.219 -3.997 1.219 -6.01 v -6.377 z" stroke-linecap="round"/>
</g>
</g>
</g>
</svg>