<svg xmlns="http://www.w3.org/2000/svg" xmlns:xlink="http://www.w3.org/1999/xlink" version="1.1" width="1000" height="1000" viewBox="0 0 1000 1000" xml:space="preserve">
<desc>Created with Fabric.js 3.5.0</desc>
<defs>
</defs>
<rect x="0" y="0" width="100%" height="100%" fill="rgba(255,255,255,0)"/>
<g transform="matrix(1.9522 0 0 1.9522 499.7652 499.7652)" id="872464">
<g style="" vector-effect="non-scaling-stroke">
		<g transform="matrix(1 0 0 1 0 16.263)" id="Capa_1">
<path style="stroke: none; stroke-width: 1; stroke-dasharray: none; stroke-linecap: butt; stroke-dashoffset: 0; stroke-linejoin: miter; stroke-miterlimit: 4; is-custom-font: none; font-file-url: none; fill: rgb(215,190,105); fill-rule: nonzero; opacity: 1;" transform=" translate(-256.001, -272.264)" d="M 256.001 77.017 c -107.656 0 -195.244 87.589 -195.244 195.244 c 0 107.662 87.589 195.25 195.244 195.25 c 107.662 0 195.244 -87.589 195.244 -195.25 C 451.245 164.606 363.657 77.017 256.001 77.017 z M 256.001 432.126 c -88.143 0 -159.853 -71.715 -159.853 -159.858 s 71.709 -159.853 159.853 -159.853 s 159.853 71.71 159.853 159.853 C 415.854 360.416 344.144 432.126 256.001 432.126 z" stroke-linecap="round"/>
</g>
		<g transform="matrix(1 0 0 1 21.8255 -15.002)" id="Capa_1">
<path style="stroke: none; stroke-width: 1; stroke-dasharray: none; stroke-linecap: butt; stroke-dashoffset: 0; stroke-linejoin: miter; stroke-miterlimit: 4; is-custom-font: none; font-file-url: none; fill: rgb(215,190,105); fill-rule: nonzero; opacity: 1;" transform=" translate(-277.8265, -240.999)" d="M 310.268 266.363 H 263.08 v -68.424 c 0 -9.774 -7.922 -17.696 -17.696 -17.696 c -9.774 0 -17.696 7.922 -17.696 17.696 v 86.12 c 0 9.774 7.922 17.696 17.696 17.696 h 64.885 c 9.774 0 17.696 -7.922 17.696 -17.696 C 327.964 274.285 320.042 266.363 310.268 266.363 z" stroke-linecap="round"/>
</g>
		<g transform="matrix(1 0 0 1 -138.6174 185.5563)" id="Capa_1">
<path style="stroke: none; stroke-width: 1; stroke-dasharray: none; stroke-linecap: butt; stroke-dashoffset: 0; stroke-linejoin: miter; stroke-miterlimit: 4; is-custom-font: none; font-file-url: none; fill: rgb(215,190,105); fill-rule: nonzero; opacity: 1;" transform=" translate(-117.3836, -441.5573)" d="M 155.766 398.911 c -7.267 -6.542 -18.457 -5.946 -24.992 1.315 l -53.088 58.986 c -6.542 7.261 -5.946 18.451 1.315 24.987 c 3.38 3.05 7.615 4.548 11.833 4.548 c 4.843 0 9.668 -1.976 13.16 -5.863 l 53.088 -58.986 C 163.623 416.636 163.027 405.446 155.766 398.911 z" stroke-linecap="round"/>
</g>
		<g transform="matrix(1 0 0 1 138.626 185.5582)" id="Capa_1">
<path style="stroke: none; stroke-width: 1; stroke-dasharray: none; stroke-linecap: butt; stroke-dashoffset: 0; stroke-linejoin: miter; stroke-miterlimit: 4; is-custom-font: none; font-file-url: none; fill: rgb(215,190,105); fill-rule: nonzero; opacity: 1;" transform=" translate(-394.627, -441.5593)" d="M 434.322 459.218 l -53.088 -58.986 c -6.524 -7.267 -17.719 -7.857 -24.987 -1.315 c -7.267 6.536 -7.851 17.725 -1.315 24.987 l 53.088 58.986 c 3.486 3.881 8.311 5.857 13.154 5.857 c 4.212 0 8.447 -1.498 11.833 -4.542 C 440.274 477.669 440.858 466.479 434.322 459.218 z" stroke-linecap="round"/>
</g>
		<g transform="matrix(1 0 0 1 -176.962 -153.9517)" id="Capa_1">
<path style="stroke: none; stroke-width: 1; stroke-dasharray: none; stroke-linecap: butt; stroke-dashoffset: 0; stroke-linejoin: miter; stroke-miterlimit: 4; is-custom-font: none; font-file-url: none; fill: rgb(215,190,105); fill-rule: nonzero; opacity: 1;" transform=" translate(-79.039, -102.0493)" d="M 152.764 49.046 c -35.162 -34.43 -91.841 -34.377 -126.342 0.13 C 9.256 66.335 -0.123 89.039 0.001 113.105 c 0.13 23.777 9.556 46.039 26.55 62.685 c 3.445 3.368 7.91 5.049 12.381 5.049 c 4.53 0 9.06 -1.734 12.511 -5.179 L 152.899 74.204 c 3.339 -3.344 5.203 -7.881 5.179 -12.605 C 158.055 56.873 156.143 52.355 152.764 49.046 z M 40.873 136.174 c -3.545 -7.143 -5.439 -15.047 -5.48 -23.258 c -0.077 -14.534 5.621 -28.29 16.05 -38.719 c 10.405 -10.399 24.161 -15.596 37.993 -15.596 c 8.087 0 16.204 1.775 23.683 5.326 L 40.873 136.174 z" stroke-linecap="round"/>
</g>
		<g transform="matrix(1 0 0 1 176.959 -153.9541)" id="Capa_1">
<path style="stroke: none; stroke-width: 1; stroke-dasharray: none; stroke-linecap: butt; stroke-dashoffset: 0; stroke-linejoin: miter; stroke-miterlimit: 4; is-custom-font: none; font-file-url: none; fill: rgb(215,190,105); fill-rule: nonzero; opacity: 1;" transform=" translate(-432.96, -102.0469)" d="M 485.581 49.17 c -34.507 -34.501 -91.187 -34.56 -126.348 -0.13 c -3.374 3.309 -5.291 7.828 -5.315 12.552 c -0.024 4.725 1.846 9.267 5.185 12.605 l 101.456 101.456 c 3.451 3.457 7.981 5.185 12.511 5.185 c 4.471 0 8.942 -1.681 12.381 -5.061 c 17 -16.64 26.426 -38.901 26.55 -62.679 C 512.125 89.039 502.74 66.335 485.581 49.17 z M 471.13 136.174 l -72.246 -72.246 c 20.279 -9.627 45.189 -6.211 61.676 10.275 c 10.429 10.429 16.127 24.178 16.05 38.719 C 476.568 121.127 474.675 129.037 471.13 136.174 z" stroke-linecap="round"/>
</g>
</g>
</g>
</svg>