<svg xmlns="http://www.w3.org/2000/svg" xmlns:xlink="http://www.w3.org/1999/xlink" version="1.1" width="1000" height="1000" viewBox="0 0 1000 1000" xml:space="preserve">
<desc>Created with Fabric.js 3.5.0</desc>
<defs>
</defs>
<rect x="0" y="0" width="100%" height="100%" fill="rgba(255,255,255,0)"/>
<g transform="matrix(1.9531 0 0 1.9531 499.9936 499.9936)" id="160958">
<g style="" vector-effect="non-scaling-stroke">
		<g transform="matrix(8.5333 0 0 8.5333 175.6251 127.9967)" id="Shape">
<path style="stroke: none; stroke-width: 1; stroke-dasharray: none; stroke-linecap: butt; stroke-dashoffset: 0; stroke-linejoin: miter; stroke-miterlimit: 4; is-custom-font: none; font-file-url: none; fill: rgb(215,190,105); fill-rule: nonzero; opacity: 1;" transform=" translate(-50.5811, -45.9996)" d="m 54.135 47.653 c 1.1851892 -1.6296647 1.8275238 -3.5909544 1.836 -5.606 c 0.0127714 -0.2649617 -0.080257 -0.5241413 -0.2586124 -0.720501 c -0.1783555 -0.1963598 -0.427422 -0.3138084 -0.6923876 -0.326499 c -0.5495675 -0.0205295 -1.0147453 0.4019959 -1.047 0.951 c 0.0075252 1.5970082 -0.4844214 3.1564125 -1.407 4.46 c -1.951 2.464 -5.653 2.589 -6.376 2.589 c -0.5522847 0 -1 0.4477153 -1 1 s 0.4477153 1 1 1 c 0.884 0 5.421 -0.161 7.945 -3.347 z" stroke-linecap="round"/>
</g>
		<g transform="matrix(8.5333 0 0 8.5333 59.7332 8.5331)" id="Shape">
<path style="stroke: none; stroke-width: 1; stroke-dasharray: none; stroke-linecap: butt; stroke-dashoffset: 0; stroke-linejoin: miter; stroke-miterlimit: 4; is-custom-font: none; font-file-url: none; fill: rgb(215,190,105); fill-rule: nonzero; opacity: 1;" transform=" translate(-37, -32)" d="m 34 35 c 0 -0.5522847 -0.4477153 -1 -1 -1 s -1 0.4477153 -1 1 c 0 2.209139 1.790861 4 4 4 v 1 c 0 0.5522847 0.4477153 1 1 1 s 1 -0.4477153 1 -1 v -1 c 2.209139 0 4 -1.790861 4 -4 s -1.790861 -4 -4 -4 v -4 c 1.1045695 0 2 0.8954305 2 2 c 0 0.5522847 0.4477153 1 1 1 s 1 -0.4477153 1 -1 c 0 -2.209139 -1.790861 -4 -4 -4 v -1 c 0 -0.5522847 -0.4477153 -1 -1 -1 s -1 0.4477153 -1 1 v 1 c -2.209139 0 -4 1.790861 -4 4 s 1.790861 4 4 4 v 4 c -1.1045695 0 -2 -0.8954305 -2 -2 z m 0 -6 c 0 -1.1045695 0.8954305 -2 2 -2 v 4 c -1.1045695 0 -2 -0.8954305 -2 -2 z m 4 4 c 1.1045695 0 2 0.8954305 2 2 s -0.8954305 2 -2 2 z" stroke-linecap="round"/>
</g>
		<g transform="matrix(8.5333 0 0 8.5333 -0.0153 -0.0042)" id="Shape">
<path style="stroke: none; stroke-width: 1; stroke-dasharray: none; stroke-linecap: butt; stroke-dashoffset: 0; stroke-linejoin: miter; stroke-miterlimit: 4; is-custom-font: none; font-file-url: none; fill: rgb(215,190,105); fill-rule: nonzero; opacity: 1;" transform=" translate(-29.9983, -30.9996)" d="m 59.164 34.771 c -2.464 -10.471 -7.942 -16.538 -11.898 -19.707 c 4.961 0.374 6.558 2.438 6.605 2.5 c 0.3132922 0.4472337 0.9274202 0.5604625 1.3796069 0.2543627 c 0.4521868 -0.3060999 0.5752224 -0.9183386 0.2763931 -1.3753627 c -0.072 -0.108 -1.461 -2.092 -5.5 -3 c 1.0327774 -0.8490128 1.6437413 -2.106364 1.673 -3.443 c -0.1337149 -2.21605597 -1.6764268 -4.09522747 -3.824 -4.658 c 0.0880504 -0.72234421 0.132797 -1.44931011 0.134 -2.177 c -0.0010742 -0.6704002 -0.3379636 -1.29567216 -0.8972517 -1.6653131 c -0.5592881 -0.36964095 -1.2665755 -0.43447937 -1.8837483 -0.1726869 c -0.5048568 0.22857548 -0.9737688 0.52939332 -1.392 0.893 c -0.490755 0.50432069 -1.1663364 0.78611399 -1.87 0.78 c -0.7025562 0.00494474 -1.3767675 -0.27672898 -1.867 -0.78 c -1.7623456 -1.62766106 -4.4796544 -1.62766106 -6.242 0 c -0.4908328 0.50541883 -1.1675068 0.78736633 -1.872 0.78 c -0.7024391 0.00583749 -1.376677 -0.27599831 -1.866 -0.78 c -0.4171447 -0.36282613 -0.8846704 -0.66328215 -1.388 -0.892 c -0.616755 -0.26003778 -1.3227042 -0.1943139 -1.8808565 0.17510774 s -0.8945053 0.99356152 -0.8961435 1.66289226 c 0 2.488 0.492 6.926 3.607 9.906 c -1.63707 0.9954475 -3.165988 2.1587255 -4.562 3.471 v -7.543 c 0 -2.28 -3.225 -4 -7.5 -4 s -7.5 1.72 -7.5 4 v 10.075 c -3.507 0.35 -6 1.925 -6 3.925 v 25.435 c -2.416 0.649 -4 1.965 -4 3.565 v 5 c 0 2.28 3.225 4 7.5 4 c 3.823 0 6.8 -1.377 7.387 -3.3 c 1.7261589 0.9139563 3.6607978 1.3620288 5.613 1.3 c 4.275 0 7.5 -1.72 7.5 -4 v -13 c 0 -2.28 -3.225 -4 -7.5 -4 c -0.5009454 -0.0003351 -1.0015865 0.024697 -1.5 0.075 v -15.075 c 0 -2.19 -2.977 -3.858 -7 -3.987 v -7.244 c 1.7012299 0.8646888 3.5924826 1.2879855 5.5 1.231 c 1.9075174 0.0569855 3.7987701 -0.3663112 5.5 -1.231 v 6.82 c -0.659 0.737 -1.321 1.54 -1.974 2.43 c -0.2990252 0.445283 -0.193493 1.0471811 0.2391837 1.3641731 c 0.4326766 0.316992 1.0383882 0.2361727 1.3728163 -0.1831731 c 0.642267 -0.8695025 1.3305836 -1.704028 2.062 -2.5 c 0.008 -0.009 0.015 -0.018 0.023 -0.026 c 1.908941 -2.1215143 4.1506085 -3.9180232 6.637 -5.319 c 0.4902069 0.2364593 1.0087963 0.4088743 1.543 0.513 l -2.578 2.406 c -0.4037201 0.3772105 -0.4252105 1.0102798 -0.048 1.414 c 0.3772105 0.4037201 1.0102798 0.4252105 1.414 0.048 l 4 -3.731 h 0.319 v 3 c 0 0.5522847 0.4477153 1 1 1 s 1 -0.4477153 1 -1 v -3.005 h 0.319 l 4 3.731 c 0.2611611 0.2440124 0.6326631 0.3301613 0.9745646 0.2259954 c 0.3419015 -0.104166 0.6022596 -0.3828217 0.683 -0.731 c 0.0807403 -0.3481784 -0.0304035 -0.712983 -0.2915646 -0.9569954 l -2.595 -2.416 c 0.5310027 -0.1050953 1.0462467 -0.2781877 1.533 -0.515 c 2.643 1.43 11.331 7.08 14.585 20.891 c 1.415 6.012 0.905 10.611 -1.515 13.666 c -3.096 3.905 -8.468 4.105 -9.513 4.105 h -14.19 c -0.5522847 0 -1 0.4477153 -1 1 s 0.4477153 1 1 1 h 14.19 c 1.7 0 7.505 -0.351 11.08 -4.863 c 2.818 -3.559 3.456 -8.729 1.894 -15.366 z m -51.664 15.229 c 3.307 0 5.5 1.2 5.5 2 s -2.193 2 -5.5 2 s -5.5 -1.2 -5.5 -2 s 2.193 -2 5.5 -2 z m 0 9 c -3.307 0 -5.5 -1.2 -5.5 -2 v -2.231 c 1.70122995 0.8646888 3.5924826 1.2879855 5.5 1.231 c 1.9075174 0.0569855 3.7987701 -0.3663112 5.5 -1.231 v 2.231 c 0 0.8 -2.193 2 -5.5 2 z m 13 -2 c -3.307 0 -5.5 -1.2 -5.5 -2 v -10.231 c 1.7012299 0.8646888 3.5924826 1.2879855 5.5 1.231 c 1.9075174 0.0569855 3.7987701 -0.3663112 5.5 -1.231 v 10.231 c 0 0.8 -2.193 2 -5.5 2 z m 5.5 -15 c 0 0.8 -2.193 2 -5.5 2 s -5.5 -1.2 -5.5 -2 s 2.193 -2 5.5 -2 s 5.5 1.2 5.5 2 z m -13 0 v 7.231 c -1.7012299 -0.8646888 -3.5924826 -1.2879855 -5.5 -1.231 c -0.50094542 -0.0003351 -1.00158648 0.024697 -1.5 0.075 v -22.306 c 1.70122995 0.8646888 3.5924826 1.2879855 5.5 1.231 c 1.9075174 0.0569855 3.7987701 -0.3663112 5.5 -1.231 v 12.666 c -2.416 0.649 -4 1.965 -4 3.565 z m 4 -19 c 0 0.8 -2.193 2 -5.5 2 s -5.5 -1.2 -5.5 -2 s 2.193 -2 5.5 -2 s 5.5 1.2 5.5 2 z m 0.5 -12 c -3.307 0 -5.5 -1.2 -5.5 -2 s 2.193 -2 5.5 -2 s 5.5 1.2 5.5 2 s -2.193 2 -5.5 2 z m 32.2 -1 c 0 1.639 -1.775 2.984 -4 3 c -0.372166 -0.0023545 -0.742987 -0.0449352 -1.106 -0.127 c 1.4513822 -1.5484467 2.4601961 -3.45832018 2.921 -5.53 c 1.2037057 0.35466779 2.0694756 1.40745976 2.185 2.657 z m -20.832 -6.22 c 0.8445081 0.79133617 1.9607007 1.22807609 3.118 1.22 c 1.1580078 0.00869278 2.2750454 -0.42809756 3.12 -1.22 c 0.4943009 -0.49906005 1.1675796 -0.77983262 1.87 -0.77983262 s 1.3756991 0.28077257 1.87 0.77983262 c 0.8449823 0.79249552 1.9625715 1.22936153 3.121 1.22 c 1.1583526 0.00894999 2.2757944 -0.42785839 3.121 -1.22 c 0.277126 -0.24492313 0.5854745 -0.45205799 0.917 -0.616 c 0 1.857 -0.345 6.448 -3.567 8.965 c -0.7248626 0.5443964 -1.6035782 0.8451202 -2.51 0.859 c 0.8656839 -1.486887 1.5508604 -3.07175631 2.041 -4.721 c 0.0957472 -0.34440403 0.0004839 -0.71372699 -0.2499052 -0.96884849 c -0.250389 -0.2551215 -0.6178638 -0.35728253 -0.964 -0.268 s -0.6183476 0.35644446 -0.7140948 0.70084849 c -0.5538471 1.879763 -1.4053057 3.6586431 -2.522 5.269 h -1.028 c -1.1144846 -1.6117791 -1.9660791 -3.3902379 -2.523 -5.269 c -0.1482885 -0.53212635 -0.6998736 -0.84328843 -1.232 -0.69499998 c -0.5321263 0.14828845 -0.8432884 0.69987363 -0.695 1.23199998 c 0.4906109 1.65066414 1.1764605 3.2368802 2.043 4.725 c -0.9245715 -0.0047456 -1.8229903 -0.3073745 -2.562 -0.863 c -3.222 -2.516 -3.567 -7.107 -3.567 -8.958 c 0.3313843 0.15877018 0.6387399 0.3634495 0.913 0.608 z" stroke-linecap="round"/>
</g>
		<g transform="matrix(8.5333 0 0 8.5333 175.6251 127.9971)" id="Shape">
<path style="stroke: none; stroke-width: 1; stroke-dasharray: none; stroke-linecap: butt; stroke-dashoffset: 0; stroke-linejoin: miter; stroke-miterlimit: 4; is-custom-font: none; font-file-url: none; fill: rgb(215,190,105); fill-rule: nonzero; opacity: 1;" transform=" translate(-50.5811, -45.9997)" d="m 54.135 47.653 c 1.1851892 -1.6296647 1.8275238 -3.5909544 1.836 -5.606 c 0.0127714 -0.2649617 -0.080257 -0.5241413 -0.2586124 -0.720501 c -0.1783555 -0.1963598 -0.427422 -0.3138084 -0.6923876 -0.326499 c -0.5491739 -0.019453 -1.0137115 0.4024909 -1.047 0.951 c 0.0075252 1.5970082 -0.4844214 3.1564125 -1.407 4.46 c -1.951 2.464 -5.653 2.589 -6.376 2.589 c -0.5522847 0 -1 0.4477153 -1 1 s 0.4477153 1 1 1 c 0.884 0 5.421 -0.161 7.945 -3.347 z" stroke-linecap="round"/>
</g>
</g>
</g>
</svg>