<svg xmlns="http://www.w3.org/2000/svg" xmlns:xlink="http://www.w3.org/1999/xlink" version="1.1" width="1000" height="1000" viewBox="0 0 1000 1000" xml:space="preserve">
<desc>Created with Fabric.js 3.5.0</desc>
<defs>
</defs>
<rect x="0" y="0" width="100%" height="100%" fill="rgba(255,255,255,0)"/>
<g transform="matrix(1.9531 0 0 1.9531 499.9936 499.9936)" id="421242">
<g style="" vector-effect="non-scaling-stroke">
		<g transform="matrix(16 0 0 16 -127.7577 0.0078)">
<path style="stroke: none; stroke-width: 1; stroke-dasharray: none; stroke-linecap: butt; stroke-dashoffset: 0; stroke-linejoin: miter; stroke-miterlimit: 4; is-custom-font: none; font-file-url: none; fill: rgb(215,190,105); fill-rule: nonzero; opacity: 1;" transform=" translate(-8.0151, -16.0005)" d="m 6.59796 19.24103 c -0.65674 1.65723 -1.69482 3.29785 -3.08496 4.87695 c -0.44238 0.50244 -0.49854 1.21973 -0.13965 1.78467 c 0.27637 0.43457 0.74121 0.68213 1.2334 0.68213 c 0.13867 0 0.27979 -0.01953 0.41895 -0.06006 c 2.94629 -0.86084 9.81885 -3.91846 10.00342 -13.69189 c 0.07129 -3.77393 -2.68896 -7.01611 -6.2832 -7.38135 c -1.98097 -0.19825 -3.9629 0.44531 -5.43165 1.77295 c -1.4707 1.3291 -2.31445 3.22656 -2.31445 5.20654 c 0 3.30322 2.34472 6.19189 5.59814 6.81006 z m -1.94287 -10.53272 c 0.93408 -0.84424 2.10986 -1.29395 3.35645 -1.29395 c 0.17627 0 0.354 0.00879 0.53223 0.02734 c 2.56689 0.26025 4.53711 2.61182 4.48535 5.35303 c -0.12744 6.7627 -3.78906 9.80713 -6.82129 11.16895 c 0.95947 -1.29785 1.71338 -2.63281 2.24951 -3.98584 c 0.20898 -0.52686 0.17432 -1.11572 -0.09473 -1.61572 c -0.28174 -0.52441 -0.78418 -0.89648 -1.37744 -1.021 c -2.30957 -0.48291 -3.98535 -2.54834 -3.98535 -4.91016 c 0 -1.41503 0.60351 -2.77196 1.65527 -3.72265 z" stroke-linecap="round"/>
</g>
		<g transform="matrix(16 0 0 16 127.7578 0.0001)">
<path style="stroke: none; stroke-width: 1; stroke-dasharray: none; stroke-linecap: butt; stroke-dashoffset: 0; stroke-linejoin: miter; stroke-miterlimit: 4; is-custom-font: none; font-file-url: none; fill: rgb(215,190,105); fill-rule: nonzero; opacity: 1;" transform=" translate(-23.9849, -16)" d="m 19.34357 25.90265 c 0.27637 0.43457 0.74121 0.68213 1.2334 0.68213 c 0.13867 0 0.2793 -0.01953 0.41895 -0.06006 c 2.94629 -0.86084 9.81836 -3.91846 10.00293 -13.69189 v -0.00049 c 0.07031 -3.77393 -2.68945 -7.01563 -6.28418 -7.38086 c -1.9834 -0.20166 -3.96191 0.44482 -5.43066 1.77295 c -1.4707 1.3291 -2.31445 3.22656 -2.31445 5.20654 c 0 3.30322 2.34473 6.19189 5.59766 6.81006 c -0.65723 1.65869 -1.69531 3.29932 -3.08496 4.87744 c -0.4424 0.50293 -0.49807 1.21973 -0.13869 1.78418 z m 5.083 -5.92383 c 0.20898 -0.52686 0.1748 -1.11572 -0.09375 -1.61572 c -0.28223 -0.5249 -0.78418 -0.89697 -1.37793 -1.02197 c -2.30957 -0.48291 -3.98535 -2.54834 -3.98535 -4.91016 c 0 -1.41553 0.60352 -2.77197 1.65527 -3.72266 c 0.93359 -0.84424 2.10938 -1.29395 3.35645 -1.29395 c 0.17578 0 0.35352 0.00879 0.53223 0.02734 c 2.56641 0.26025 4.53711 2.61182 4.48535 5.35303 c -0.12695 6.76318 -3.78906 9.80713 -6.82129 11.16895 c 0.95899 -1.29687 1.71192 -2.63183 2.24902 -3.98486 z" stroke-linecap="round"/>
</g>
</g>
</g>
</svg>